<?xml version="1.0" encoding="UTF-8"?>
<svg id="Layer_1" data-name="Layer 1" xmlns="http://www.w3.org/2000/svg" xmlns:xlink="http://www.w3.org/1999/xlink" viewBox="0 0 1592.82 637.05">
  <defs>
    <style>
      .cls-1 {
        fill: #e3ef89;
      }

      .cls-2 {
        fill: url(#linear-gradient-4);
      }

      .cls-3 {
        fill: url(#linear-gradient-3);
      }

      .cls-4 {
        fill: url(#linear-gradient-2);
      }

      .cls-5, .cls-6 {
        fill: #5a6823;
      }

      .cls-7 {
        fill: #7e4f30;
      }

      .cls-8 {
        fill: url(#linear-gradient);
      }

      .cls-6 {
        stroke: #5a6823;
        stroke-miterlimit: 10;
        stroke-width: 3px;
      }
    </style>
    <linearGradient id="linear-gradient" x1="58.42" y1="89.31" x2="449.52" y2="1455.54" gradientUnits="userSpaceOnUse">
      <stop offset=".13" stop-color="#b3c94d"/>
      <stop offset=".55" stop-color="#5b6923"/>
    </linearGradient>
    <linearGradient id="linear-gradient-2" x1="354.2" y1="6.36" x2="745.29" y2="1372.59" gradientUnits="userSpaceOnUse">
      <stop offset=".19" stop-color="#b3c94d"/>
      <stop offset=".58" stop-color="#5b6923"/>
    </linearGradient>
    <linearGradient id="linear-gradient-3" x1="1045.54" y1="-201.1" x2="1435.57" y2="1161.41" gradientUnits="userSpaceOnUse">
      <stop offset=".41" stop-color="#b3c94d"/>
      <stop offset=".72" stop-color="#5b6923"/>
    </linearGradient>
    <linearGradient id="linear-gradient-4" x1="1253.61" y1="-262.56" x2="1644.71" y2="1103.68" gradientUnits="userSpaceOnUse">
      <stop offset=".44" stop-color="#b3c94d"/>
      <stop offset=".72" stop-color="#5b6923"/>
    </linearGradient>
  </defs>
  <path class="cls-5" d="M844.72,0c1.58.69,3.42.69,5.01,0h4.17c5.43,1.72,11.18,2.25,16.69,3.76,36.28,9.93,70.38,42.64,83.49,77.65,15.39,41.1,6.68,85.19,24.05,125.44,11.63,26.96,31.86,49.19,43.69,76.55,38.35,88.64,37.37,188.89-46.98,248.94-88.14,62.75-220.07,50.87-292.48-30.38-29.02-32.56-39.88-65.14-41.31-108.59-.68-1.55-.65-3.46,0-5.01-.63-2.22-.63-4.48,0-6.68-.65-1.26-.67-2.93,0-4.18,1.27-41.02,11.24-86.49,30.45-122.79,8.81-16.65,20.45-31.87,28.96-48.7,17.47-34.56,15.07-67.88,25.13-104.3,12.96-46.91,43.21-83.58,90.56-98.13l15.2-3.58h13.36Z"/>
  <path class="cls-1" d="M834.54,11.94c46.32-4.13,93.02,31.26,108.69,73.65,13.11,35.44,7.5,74.14,18.13,109.65,10.87,36.32,37.75,62.95,51.76,97.7,26.89,66.7,34.75,146.63-16.06,204.01-83.87,94.73-258.22,81.69-324.13-27.32-31.41-51.95-22.45-131.98-1.62-186.71,14.35-37.7,46.1-69.71,53.8-109.87,6.4-33.39,6.57-62.69,21.23-94.85,14.88-32.65,51.71-63.01,88.19-66.27Z"/>
  <path class="cls-7" d="M845.38,206.94c-75.08,0-135.95,71.26-135.95,159.16,0,52.98,22.11,99.92,56.12,128.85,11.79,10.03,25.01,17.89,39.23,23.1,6.35,2.32,12.9,4.12,19.61,5.33,6.84,1.24,13.85,1.89,20.98,1.89,6.19,0,12.28-.49,18.25-1.42,7.02-1.1,13.86-2.83,20.5-5.13,14.18-4.93,27.4-12.49,39.23-22.21,35.06-28.79,57.98-76.46,57.98-130.4,0-87.9-60.87-159.16-135.95-159.16Z"/>
  <path class="cls-1" d="M799.07,362.44c.02.2.02.63,0,.83-.1.88-.59,1.78-1.39,2.2-.95.49-2.02.35-3.03.24l-9.94,12.46c-.01,1.62-.76,3.11-2.27,3.79-2.82,1.27-4.44-1.41-4.59-3.87l-8.25-5.64-2.79.89-9.91,9.58c1.28,2.75-1.44,6.44-4.51,5.12s-2.97-7.01,1.02-7.09c.3,0,.77.14,1.01,0,3.27-3.24,6.64-6.36,9.89-9.62.07-.07.21-.13.26-.19.12-.16-.1-.86-.11-1.12-.2-3.2,3.86-4.88,5.71-2.27.37.52.36.89.61,1.39.3.59,1.59,1.11,2.19,1.47,1.39.83,2.75,1.72,4.06,2.67.8.58,2.09,1.79,2.88,2.18.63.32.97.01,1.58-.03.29-.02,1.07.12,1.23,0,3.35-4.01,6.8-7.95,10.25-11.87.22-1.34.17-3.11,1.68-3.71,1.85-.73,4.19.55,4.43,2.57Z"/>
  <path class="cls-1" d="M759.79,392.53h-2.93c-2.18,0-3.95,1.29-3.95,2.88v23.04c3.26,2.02,6.91,3.6,10.83,4.65v-27.69c0-1.59-1.77-2.88-3.95-2.88Z"/>
  <path class="cls-1" d="M776.04,384.43h-2.93c-2.18,0-3.95,1.29-3.95,2.88v36.86c1.89.25,3.82.38,5.79.38,1.71,0,3.39-.1,5.04-.29v-36.96c0-1.59-1.77-2.88-3.95-2.88Z"/>
  <path class="cls-1" d="M792.53,377.57h-2.93c-2.18,0-3.95,1.29-3.95,2.88v42.79c3.92-.99,7.57-2.51,10.83-4.47v-38.32c0-1.59-1.77-2.88-3.95-2.88Z"/>
  <path class="cls-1" d="M896.64,387.7l7.74,7.65c-2.1,2.87-6.65,5.51-7.6,9.06-1.39,5.21,2.65,10.13,8.05,9.59,4.5-.45,7.12-5.29,10.4-7.81l7.65,7.65-.18.31c-4.01,3.81-7.29,8.26-12.72,10.14-14.27,4.94-28.16-8.08-24.04-22.63,1.72-6.09,6.49-9.64,10.7-13.96Z"/>
  <path class="cls-1" d="M919.16,374.46l1.18-1.84c1.83-4.27-2.07-8.57-6.54-7.19-3.06.95-4.43,4.74-2.96,7.53.12.23,1.11,1.39,1,1.5-2.27.59-4.15,2.18-5.59,3.98-3.4-5.9.05-13.61,6.59-15.24,8.98-2.25,16.36,7.16,11.91,15.24-1.38-1.84-3.33-3.4-5.59-3.98Z"/>
  <path class="cls-1" d="M947.03,400.91c-.18.04-.21-.03-.32-.12-.32-.29-.68-.86-1.09-1.22-.98-.88-2.18-1.46-3.34-2.05,2.27-2.4,1.4-6.36-1.67-7.57-4.69-1.85-8.52,3.93-5.14,7.57-1.24.64-2.5,1.29-3.53,2.24-.23.21-1.04,1.29-1.21,1.16-2.46-5.02.12-11.22,5.52-12.78,7.74-2.24,14.2,5.59,10.78,12.78Z"/>
  <path class="cls-1" d="M914.51,375.78c3.65-.36,7.14,1.34,9.12,4.39-4.15,5.12-12.09,5.04-16.28,0,1.68-2.39,4.19-4.1,7.16-4.39Z"/>
  <path class="cls-1" d="M902.56,382.19c.67-.14,1.24.09,1.77.48,1.01.75,4.2,3.98,5.01,5.01,2,2.54-2.17,4.48-3.49,6.28l-7.74-7.65c-.03-.16.11-.21.18-.31.52-.68,2.6-2.75,3.28-3.27.24-.18.72-.49.99-.55Z"/>
  <path class="cls-1" d="M920.92,400.69c.82-.17,1.35.06,1.96.55,1.05.83,4.15,3.89,4.95,4.94,1.92,2.52-2.17,4.53-3.49,6.29l-7.74-7.65c-.03-.16.11-.21.18-.31.54-.7,2.7-2.86,3.4-3.4.21-.16.48-.36.74-.42Z"/>
  <path class="cls-1" d="M944.59,378.57c-1.03-.9-2.08-2-3.47-2.31,1.63-2.12,1.07-5.35-1.5-6.39-3.21-1.3-6.43,1.76-5.31,5.05.17.5.54.84.65,1.34-1.31.41-2.35,1.34-3.27,2.31-2.3-3.8-.39-8.88,3.66-10.46,6.51-2.54,12.49,4.35,9.24,10.46Z"/>
  <path class="cls-1" d="M937.89,399.03c3.23-.33,6.11,1.01,7.85,3.73-3.41,4.22-10.41,4.27-13.72-.09,1.4-1.92,3.45-3.39,5.87-3.64Z"/>
  <path class="cls-1" d="M942.62,379.38c.22.22.39.59.68.79-2.74,2.92-7.68,2.94-10.39,0,2.21-3.1,7.01-3.54,9.71-.79Z"/>
  <path class="cls-1" d="M917.83,372.87c-3.21,3.05-7.76-1.9-4.64-4.83s7.75,1.88,4.64,4.83Z"/>
  <path class="cls-1" d="M933.63,409.56c.7.64-.17,3.25.04,4.2,1.16,0,2.95-1.47,3.59.07-.21,1.68-.2,3.71-.57,5.34-.1.45-.3.89-.81,1-2.15.44-.55-3.72-.81-4.73-1.15.21-2.98,1.51-3.57-.09l.52-5.46c.29-.61,1.09-.78,1.59-.31Z"/>
  <path class="cls-1" d="M894.38,375.36c.5-.87,1.05-3.07,2.35-2.67.25.07,2.96,3.3,3.3,3.77.31.43.7.76.59,1.34-.07.41-.51.75-.92.77-.89.05-2.23-2.29-2.88-2.89-.13-.12-.18-.23-.39-.19-.56.94-.93,2.97-2.35,2.54-.24-.07-2.97-3.2-3.3-3.64-.47-.62-.85-1.26,0-1.78,1.28-.78,2.57,2.22,3.58,2.75Z"/>
  <path class="cls-1" d="M916.98,392.31h2.89c.43,0,.73.95.55,1.32l-2.19,5.07c-.45.36-1.19.4-1.51-.15-.55-.92,1.04-3.29,1.29-4.31h-2.63c-.47,0-.99-.73-.83-1.21l2.05-5.02c.53-.62,1.59-.27,1.67.53.09.88-1.17,2.79-1.28,3.78Z"/>
  <path class="cls-1" d="M940.82,392.36c2.68,2.7-1.87,6.71-4.19,3.48-1.92-2.67,1.86-5.83,4.19-3.48Z"/>
  <path class="cls-1" d="M936.67,375.06c-1.87-1.76.9-4.96,2.91-2.85,1.75,1.83-1,4.65-2.91,2.85Z"/>
  <path class="cls-1" d="M919.02,341.4l-1.87-.89c1.03-2.18,1.75-4.63,2.14-7.26.38-2.58.42-5.29.14-8.06-.28-2.76-.89-5.51-1.8-8.16-.93-2.71-2.15-5.25-3.64-7.56-2.51-3.9-5.72-7.04-9.26-9.07-3.49-2-7.16-2.84-10.6-2.42l-.25-2.05c3.89-.46,8,.46,11.88,2.68,3.83,2.19,7.28,5.56,9.98,9.75,1.58,2.45,2.88,5.15,3.86,8.01.96,2.8,1.6,5.7,1.9,8.62.3,2.93.25,5.82-.15,8.56-.41,2.84-1.19,5.48-2.31,7.85Z"/>
  <polygon class="cls-1" points="916.59 343.26 915.93 336.59 917 336.49 917.52 341.69 922.4 339.59 922.83 340.58 916.59 343.26"/>
  <path class="cls-1" d="M923.51,340.85l-7.36,3.17-.78-7.88,2.1-.21.5,5.01,4.71-2.03.83,1.94ZM917.03,342.5l5.12-2.2-.02-.04-5.06,2.18-.54-5.39h-.04s.54,5.45.54,5.45Z"/>
  <path class="cls-1" d="M817.08,440.22l1.81-.99c1.16,2.12,2.71,4.14,4.62,6,1.87,1.82,4.03,3.45,6.44,4.85,2.4,1.39,4.98,2.52,7.66,3.34,2.74.84,5.51,1.34,8.26,1.5,4.64.26,9.06-.49,12.78-2.17,3.67-1.65,6.5-4.12,8.19-7.16l1.81,1.01c-1.91,3.42-5.08,6.2-9.15,8.03-4.03,1.81-8.78,2.62-13.75,2.34-2.91-.16-5.86-.7-8.75-1.58-2.83-.87-5.55-2.06-8.09-3.53-2.55-1.48-4.85-3.22-6.84-5.16-2.06-2-3.73-4.19-4.99-6.49Z"/>
  <polygon class="cls-1" points="817.01 437.17 822.79 440.55 822.25 441.48 817.73 438.84 816.56 444.03 815.51 443.79 817.01 437.17"/>
  <path class="cls-1" d="M814.89,444.18l1.77-7.82,6.84,4-1.07,1.82-4.35-2.54-1.13,5-2.06-.47ZM817.35,437.97l-1.23,5.43h.04s1.21-5.36,1.21-5.36l4.68,2.73.02-.04-4.73-2.76Z"/>
  <path class="cls-1" d="M784.9,298.87l.07,2.07c-2.41.08-4.91.56-7.43,1.43-2.47.85-4.9,2.05-7.22,3.57-2.33,1.52-4.49,3.31-6.42,5.34-1.98,2.07-3.68,4.32-5.05,6.71-2.32,4.02-3.63,8.31-3.81,12.39-.17,4.02.76,7.66,2.71,10.53l-1.71,1.16c-2.2-3.25-3.26-7.32-3.06-11.78.19-4.41,1.6-9.03,4.08-13.34,1.45-2.53,3.25-4.92,5.35-7.11,2.05-2.14,4.33-4.03,6.79-5.64,2.47-1.61,5.05-2.89,7.68-3.79,2.71-.94,5.42-1.46,8.04-1.54Z"/>
  <polygon class="cls-1" points="787.67 300.18 782.05 303.82 781.46 302.92 785.85 300.07 781.74 296.7 782.42 295.86 787.67 300.18"/>
  <path class="cls-1" d="M782.35,295.14l6.19,5.09-6.64,4.31-1.15-1.77,4.23-2.74-3.96-3.26,1.34-1.63ZM786.79,300.13l-4.3-3.54-.03.03,4.25,3.5-4.54,2.95.02.04,4.59-2.98Z"/>
  <path class="cls-1" d="M839.19,334.71c-1.12-.32-2.33-1.33-2.53-2.53-.44-2.63.14-6.55-.03-9.37-.14-2.49-.93-5.24-2.12-7.42-1.06-1.95-2.63-3.54-3.94-5.31-.77,1.2-3.64,1.15-4.55.27-.56-.54-.43-1.59-.8-1.78-.34-.17-.59.16-.93.21-.85.13-1.44-.07-1.99-.7-.67-.78-1.44-2.22-1.1-3.24.23-.71,1.04-.91,1.04-1.39,0-.51-.31-.37-.59-.7-1.05-1.25-.41-2.53.46-3.69.53-.71.97-1.02,1.9-.96.43.03.78.3,1,.29.6,0,.44-.79.56-1.14s.57-.67.64-1.07c.17-.9.02-2.31.17-3.39.2-1.44.1-2.38,1.75-2.52,3.72-.31,8.37.49,11.96,0,1.84-.25,2.8-1.89,2.94-3.61.48-6.14-.37-12.89,0-19.1-.15-1.92-1.28-3.31-3.21-3.63h-20.08c-1.93.33-3.06,1.7-3.21,3.63-.5,6.29.35,13.26.04,19.62.19,1.48,1.38,2.88,2.9,3.09.98.13,3.95-.44,4.19.8.15.8-.1,1.26-.92,1.35-4.28.5-7.81-.81-8.34-5.48.4-6.37-.52-13.36,0-19.66.25-3.04,2.4-5.28,5.48-5.49,6.42-.45,13.34.35,19.81,0,2.54-.08,5.48,2.68,5.48,5.21v5.77c1.17-.31,2.42-.47,3.63-.57.74-.06,1.74.12,2.41,0,.42-.08.76-.49,1.43-.56.92-.1,1.65.06,2.36.64l1.63-.78c-.04-1.7.67-3.4,2.56-3.57,1.12-.1,3.48-.14,4.4.46,1.08.71,1.16,1.94,1.3,3.11l1.31.82c1.29-.65,2.59-1.18,3.88-.18.53.41,2.14,3.21,2.25,3.87.31,1.77-.72,2.58-2.08,3.4l.02,1.56c1.28.85,2.29,1.5,2.08,3.25-.06.49-.56,1.24-.54,1.54.05.49.93,2.16,1.16,2.85.33,1.02,1.45,4.07-.68,3.67-1-.19-1.31-3.4-1.79-4.27-.41.07-.62.43-1.04.6-1.13.45-2.21.11-3.17-.56l-1.43.81c-.06,1.59-.58,3.37-2.42,3.56-.78.08-2.95.11-3.7,0-1.63-.25-2.24-2.08-2.1-3.52l-1.39-.81c-.3-.09-.84.45-1.14.56-1.95.76-2.96-.5-3.87-1.97-1.4-2.26-2.05-4.16.85-5.54l-.04-1.82c-1.47-.86-2.47-2.01-1.81-3.8.08-.21.68-1.1.6-1.18-1.57.02-3.15.24-4.69.58v11.88c.17,2.17-2.44,5.62-4.64,5.62h-11.89c-.26,1.17-.33,2.37-.29,3.56,1.53-.15,2.61.75,2.65,2.29,1.02.17,1.68-.59,2.76.21.62.46,1.64,2.33,1.57,3.11-.1,1.05-1.1,1.43-1.15,1.73-.09.62.75.74,1.02,1.56.44,1.36-1.17,4.25-2.86,3.93l2.64,3.27,4.16-4.05c-4.18-7.52,2.46-16.21,10.83-14.07,1.02.26,1.85.79,2.8,1.19,6.51.43,13.82-.6,20.24-.01.74.07.99.23,1.17.97.46,1.91.31,4.25.78,6.19.86,1.48,3.59,3.53,3.53,5.3-.08,2.27-3.11,2.91-4.4,4.3l-.74,8.52c-.88,6.33-7.2,3.83-11.61,4.34-.58.07-1.1.48-1.2,1.08-.48,3.01,1.35,7.56-2.57,8.89h-18.8ZM858.85,270.4v2.14c0,.1-.27.39-.38.48-.71.55-2.24,1.05-3.03,1.67-.82.14-1.99-1.32-2.72-.87l-1.51,2.71c0,.76,2.12,1.03,2.23,2.15.04.39-.14,1.3-.15,1.85-.01.62.32,1.03-.02,1.67s-2.03.95-2.05,1.6c-.01.28,1.42,2.73,1.65,2.86.57.3,1.67-1.15,2.74-.91.36.08,1.18.75,1.57.99.31.18,1.66.69,1.66,1.04v2.14c0,.48,3.25.47,3.56.29.57-.34.04-2.06.44-2.69.25-.4,2.49-1.15,2.94-1.76,1.03-.49,2.33,1.52,3.09.67.19-.22,1.38-2.43,1.36-2.62-.07-.73-1.82-.96-2.08-1.78-.22-.7.09-1.27.09-1.93s-.44-1.43.07-2.06c.42-.52,1.94-.78,1.93-1.5,0-.56-1.26-2.1-1.47-2.75-.7-.41-1.94,1.04-2.72.94-.4-.05-1.15-.75-1.58-.99-.53-.31-1.69-.58-1.8-1.19-.14-.75.23-1.72-.28-2.42-.63-.03-3.39-.33-3.57.29ZM847.14,295.72c-9.2.32-9.48,14.21-.33,14.91,10.42.8,10.72-15.28.33-14.91ZM872.24,297.25h-17.23c5.13,6.68-.04,16.23-8.47,15.52-2.36-.2-4.41-1.41-6.11-2.98l-4.21,4.07c.44,1.27,1.14,2.4,1.56,3.68,1.67,5.08.43,9.1.99,13.96.08.7.51,1.08,1.21,1.07,5.5-.39,11.68.5,17.11,0,.49-.05,1.1-.24,1.2-.79.5-2.63-1.09-6.76,1.67-8.59,1.86-1.24,6.84-.3,9.24-.59,2.72-.33,1.95-3.95,2.35-5.84h-4.63c-.61,0-.97-1.11-.56-1.7.6-.88,4.26-.18,5.34-.5.25-.18.2-3.27.49-3.92.33-.74,4.07-2.52,4.18-3.09l-3.47-4.6-.64-5.7ZM828.79,298.1h-1.14s-.33,1.53-.33,1.53c-1.38.6-2.02,1.79-3.52.61-.74,1.53-.26.92.38,1.61.54.58.17,1.03.17,1.59,0,.4.19.59.09,1.07-.15.72-1,.82-1.06,1.08l.42,1.05c1.5-1.16,1.95-.05,3.33.44.5.43.57,1.09.51,1.69h1.14c-.02-.71-.12-1.23.52-1.69.21-.15,1.82-1.01,1.98-1.02.4-.02.83.31,1.13.55,1.3-1.38.2-1.03-.28-1.7-.24-.33-.28-2.17-.19-2.6.16-.71,1.04-.78,1.1-1.04l-.63-1.04c-.35.28-.76.61-1.25.53-.11-.02-1.84-.95-1.96-1.05-.48-.4-.45-1.08-.43-1.64Z"/>
  <path class="cls-1" d="M822.91,284.68c-.82.7-2.1-.04-1.78-1.13l5.39-13.84c.61-.56,1.47-.52,2.04.07l5.33,14.27c-2.05,3.12-2.52-2.2-3.21-2.44-1.92.13-4.24-.25-6.11-.03-.25.03-.32.01-.48.23-.4.56-.74,2.48-1.19,2.87ZM825.09,279.45h4.84l-2.49-6.41-2.35,6.41Z"/>
  <path class="cls-1" d="M837.01,269.37c.8-.24,1.39.26,1.47,1.04-.37,4.27.49,9.37,0,13.54-.16,1.34-2,1.44-2.15-.14-.39-4.25.31-9.08,0-13.4,0-.36.33-.93.67-1.04Z"/>
  <path class="cls-1" d="M860.24,275.36c6.35-.67,7.22,8.94,1.23,9.63-6.64.76-7.56-8.96-1.23-9.63ZM860.38,277.49c-3.46.43-2.92,5.86.8,5.36,3.4-.46,2.7-5.8-.8-5.36Z"/>
  <path class="cls-1" d="M846.28,297.57c8.89-1.38,9.04,11.98.68,11.36-6.67-.5-6.83-10.4-.68-11.36ZM846.56,299.71c-3.47.58-3.68,6.43.28,7.05,5.42.85,5.69-8.06-.28-7.05Z"/>
  <path class="cls-1" d="M828.04,302.12c1.43-.26,1.76,2.33-.02,2.11-1.26-.16-1.05-1.91.02-2.11Z"/>
  <path class="cls-8" d="M293.01,398.89c0,91.63-63.2,145.05-139.26,145.05C67.73,543.94,0,475.85,0,392.55s68.09-152.3,151.57-152.3c37.4.36,77.28,17.34,105.82,44.65.59.57.69,1.49.23,2.17l-30.69,45.86c-.58.87-1.81,1-2.57.27-22.47-21.4-47.99-33.55-73.52-33.55-45.27,0-91.09,38.39-91.09,92.9,0,50.71,39.48,92.36,96.52,92.36,40.93,0,70.49-20.64,73.39-54.69.08-.98-.71-1.81-1.69-1.81h-72.01c-.93,0-1.69-.76-1.69-1.69v-32.88c0-10.81,8.77-19.58,19.58-19.58h116.16c.87,0,1.6.66,1.69,1.52.81,7.96,1.29,15.61,1.29,23.1Z"/>
  <path class="cls-4" d="M312.86,392.55c0-83.85,68.27-152.3,151.76-152.3s151.94,68.45,151.94,152.3-68.45,151.21-152.12,151.21-151.57-68.09-151.57-151.21ZM557.15,392.19c0-51.07-41.65-92.72-92.72-92.72s-92.36,41.65-92.36,92.72,41.47,92.18,92.36,92.18,92.72-41.47,92.72-92.18Z"/>
  <path class="cls-3" d="M1310.22,248.19l-135,295.78c-.27.6-.88.99-1.54.99h0c-.66,0-1.26-.39-1.54-.99l-134.46-295.78c-.51-1.12.31-2.39,1.54-2.39h46.79c7.72,0,14.71,4.56,17.82,11.62l68.12,154.39c.59,1.34,2.5,1.34,3.09,0l68.17-154.11c3.2-7.23,10.36-11.89,18.26-11.89h47.21c1.23,0,2.05,1.27,1.54,2.39Z"/>
  <path class="cls-2" d="M1289.13,392.12c0-83.85,68.27-152.3,151.75-152.3s151.94,68.45,151.94,152.3-68.45,151.21-152.12,151.21-151.57-68.09-151.57-151.21ZM1533.42,391.76c0-51.07-41.65-92.72-92.72-92.72s-92.36,41.65-92.36,92.72,41.47,92.18,92.36,92.18,92.72-41.47,92.72-92.18Z"/>
  <path class="cls-5" d="M813.83,637.05l15.92-42.91c.64-1.72,2.28-2.87,4.12-2.87h2.48c1.89,0,3.58,1.2,4.2,2.98l14.98,42.8h-9.66l-12.3-38.82,1.98.78-12.96,38.04h-8.76ZM847.19,627.33h-25.68l2.28-6.84h20.94l2.46,6.84Z"/>
  <path class="cls-5" d="M868.73,594.58v42.47h-8.52v-45.3h5.69c1.56,0,2.83,1.27,2.83,2.83Z"/>
  <rect class="cls-6" x="891.34" y="614.46" width="602.55" height="1.33"/>
  <rect class="cls-6" x="114.06" y="615.44" width="681.12" height="1.01"/>
</svg>